<mxfile host="app.diagrams.net" agent="Mozilla/5.0 (Windows NT 10.0; Win64; x64) AppleWebKit/537.36 (KHTML, like Gecko) Chrome/132.0.0.0 Safari/537.36 OPR/117.0.0.0" version="26.0.12">
  <diagram name="Página-1" id="BQZ_Hn4HJo08z4jYkva2">
    <mxGraphModel dx="1633" dy="752" grid="1" gridSize="10" guides="1" tooltips="1" connect="1" arrows="1" fold="1" page="1" pageScale="1" pageWidth="827" pageHeight="1169" math="0" shadow="0">
      <root>
        <mxCell id="0" />
        <mxCell id="1" parent="0" />
        <mxCell id="sDvQVDbW3PLoVkLUSOU8-1" value="" style="rounded=0;whiteSpace=wrap;html=1;" vertex="1" parent="1">
          <mxGeometry x="100" y="180" width="730" height="280" as="geometry" />
        </mxCell>
        <mxCell id="sDvQVDbW3PLoVkLUSOU8-2" value="1º Equipa Apeada&lt;div&gt;- ECO DAE&lt;/div&gt;&lt;div&gt;- Bala O2&lt;/div&gt;" style="ellipse;whiteSpace=wrap;html=1;" vertex="1" parent="1">
          <mxGeometry x="367.5" y="60" width="195" height="90" as="geometry" />
        </mxCell>
        <mxCell id="sDvQVDbW3PLoVkLUSOU8-3" value="1º Equipa Apeada&lt;div&gt;- ECO&lt;/div&gt;" style="ellipse;whiteSpace=wrap;html=1;" vertex="1" parent="1">
          <mxGeometry x="367.5" y="500" width="195" height="70" as="geometry" />
        </mxCell>
        <mxCell id="sDvQVDbW3PLoVkLUSOU8-4" value="1º Equipa Campo" style="ellipse;whiteSpace=wrap;html=1;aspect=fixed;" vertex="1" parent="1">
          <mxGeometry x="180" y="350" width="110" height="110" as="geometry" />
        </mxCell>
        <mxCell id="sDvQVDbW3PLoVkLUSOU8-6" value="" style="endArrow=none;html=1;rounded=0;entryX=0.5;entryY=0;entryDx=0;entryDy=0;exitX=0.5;exitY=1;exitDx=0;exitDy=0;" edge="1" parent="1" source="sDvQVDbW3PLoVkLUSOU8-1" target="sDvQVDbW3PLoVkLUSOU8-1">
          <mxGeometry width="50" height="50" relative="1" as="geometry">
            <mxPoint x="390" y="410" as="sourcePoint" />
            <mxPoint x="440" y="360" as="targetPoint" />
          </mxGeometry>
        </mxCell>
        <mxCell id="sDvQVDbW3PLoVkLUSOU8-7" value="1º Equipa Campo" style="ellipse;whiteSpace=wrap;html=1;aspect=fixed;" vertex="1" parent="1">
          <mxGeometry x="660" y="350" width="110" height="110" as="geometry" />
        </mxCell>
      </root>
    </mxGraphModel>
  </diagram>
</mxfile>
